<?xml version="1.0" encoding="UTF-8" standalone="no"?>
<!DOCTYPE svg PUBLIC "-//W3C//DTD SVG 1.1//EN" "http://www.w3.org/Graphics/SVG/1.1/DTD/svg11.dtd">
<svg width="100%" height="100%" viewBox="0 0 2000 2000" version="1.1" xmlns="http://www.w3.org/2000/svg" xmlns:xlink="http://www.w3.org/1999/xlink" xml:space="preserve" xmlns:serif="http://www.serif.com/" style="fill-rule:evenodd;clip-rule:evenodd;stroke-linejoin:round;stroke-miterlimit:2;">
    <g transform="matrix(1,0,0,1,-2050,0)">
        <rect id="Icon" x="2050" y="0" width="2000" height="2000" style="fill:none;"/>
        <g id="Icon1" serif:id="Icon">
            <g transform="matrix(2.897635,0,0,2.897635,-781.305425,-1897.635218)">
                <g transform="matrix(1,0,0,1,-192.710008,0)">
                    <g transform="matrix(3.969238,0,0,3.969238,-1392.07772,-1719.714456)">
                        <path d="M779.109,612.237L779.109,716.678C780.536,716.432 781.926,716.26 783.279,716.161C784.632,716.063 785.899,715.964 787.08,715.866C788.261,715.817 789.159,716.063 789.774,716.604C790.389,717.145 790.771,717.859 790.918,718.745C791.066,719.63 791.017,720.59 790.771,721.623C790.525,722.657 790.131,723.628 789.59,724.539C789.048,725.449 788.396,726.224 787.634,726.864C786.871,727.503 786.047,727.823 785.161,727.823C784.029,727.823 782.959,727.848 781.95,727.897C780.942,727.946 779.945,728.02 778.961,728.118C778.715,732.498 778.235,736.865 777.522,741.22C776.808,745.574 775.64,749.511 774.016,753.029C772.392,756.548 770.202,759.402 767.447,761.591C764.691,763.781 761.124,764.876 756.744,764.876C754.136,764.876 751.787,764.421 749.696,763.51C747.604,762.6 745.821,761.345 744.344,759.746C742.868,758.147 741.736,756.265 740.949,754.1C740.162,751.934 739.768,749.573 739.768,747.014C739.768,743.176 740.555,739.78 742.13,736.828C743.705,733.876 745.771,731.268 748.33,729.004C750.889,726.741 753.817,724.834 757.113,723.284C760.41,721.734 763.806,720.442 767.299,719.409L767.299,696.823C765.725,699.431 764.052,701.879 762.28,704.167C760.509,706.455 758.651,708.448 756.707,710.146C754.764,711.843 752.759,713.172 750.692,714.132C748.625,715.091 746.509,715.571 744.344,715.571C743.262,715.571 742.118,715.349 740.912,714.907C739.707,714.464 738.599,713.738 737.591,712.729C736.582,711.72 735.745,710.38 735.081,708.706C734.417,707.033 734.085,704.942 734.085,702.433L734.085,617.33C730.69,617.773 727.479,618.732 724.453,620.209C721.426,621.685 718.794,623.702 716.555,626.261C714.316,628.82 712.545,631.92 711.241,635.561C709.937,639.202 709.285,643.409 709.285,648.182C709.285,651.233 709.604,653.977 710.244,656.412C710.884,658.848 711.647,660.915 712.532,662.612C713.418,664.31 714.304,665.626 715.189,666.561C716.075,667.496 716.764,667.963 717.256,667.963C717.699,667.963 718.117,667.865 718.511,667.668C718.905,667.471 719.298,667.373 719.692,667.373C720.479,667.373 720.873,667.988 720.873,669.218C720.873,670.793 720.516,672.306 719.803,673.758C719.089,675.209 718.191,676.39 717.108,677.3C716.026,678.211 714.845,678.789 713.566,679.035C712.286,679.281 711.105,679.01 710.023,678.223C708.694,677.337 707.279,675.984 705.779,674.163C704.278,672.343 702.9,670.141 701.645,667.558C700.391,664.974 699.357,662.059 698.545,658.811C697.733,655.563 697.327,652.021 697.327,648.182C697.327,642.868 697.967,638.107 699.247,633.9C700.526,629.693 702.236,626.015 704.376,622.866C706.517,619.716 709.014,617.035 711.868,614.82C714.722,612.606 717.724,610.81 720.873,609.432C724.022,608.054 727.22,607.058 730.468,606.443C733.716,605.828 736.816,605.52 739.768,605.52C740.555,605.52 741.318,605.68 742.056,606C742.794,606.32 743.434,606.763 743.975,607.329C744.517,607.895 744.959,608.571 745.304,609.358C745.648,610.146 745.821,610.982 745.821,611.868L745.821,701.547C745.821,702.531 745.98,703.134 746.3,703.355C746.62,703.577 746.928,703.687 747.223,703.687C747.961,703.687 748.97,703.158 750.249,702.101C751.528,701.043 752.919,699.64 754.419,697.893C755.92,696.147 757.433,694.129 758.959,691.841C760.484,689.553 761.862,687.179 763.092,684.718C764.322,682.258 765.331,679.798 766.118,677.337C766.906,674.877 767.299,672.564 767.299,670.399L767.299,612.975C767.299,611.548 767.201,610.515 767.004,609.875C766.807,609.235 766.709,608.645 766.709,608.104C766.709,607.366 767.09,606.751 767.853,606.258C768.615,605.766 769.538,605.52 770.621,605.52C773.13,605.52 775.172,606.172 776.747,607.476C778.321,608.78 779.109,610.367 779.109,612.237ZM757.04,753.214C758.713,753.214 760.14,752.599 761.321,751.369C762.502,750.138 763.486,748.478 764.273,746.386C765.06,744.295 765.663,741.884 766.081,739.153C766.5,736.422 766.807,733.556 767.004,730.554C761.985,732.08 758.159,734.208 755.527,736.939C752.894,739.67 751.578,742.93 751.578,746.719C751.578,749.031 752.107,750.692 753.165,751.701C754.223,752.709 755.514,753.214 757.04,753.214Z" style="fill:rgb(255,213,0);fill-rule:nonzero;"/>
                        <path d="M747.994,701.083C748.263,700.903 748.552,700.683 748.864,700.425C750.064,699.433 751.363,698.115 752.771,696.477C754.219,694.791 755.678,692.843 757.15,690.635C758.625,688.422 759.958,686.126 761.148,683.746C762.326,681.389 763.294,679.032 764.048,676.675C764.76,674.449 765.126,672.358 765.126,670.399L765.126,612.975C765.126,611.844 765.082,611.022 764.926,610.514C764.659,609.644 764.535,608.84 764.535,608.104C764.535,606.659 765.182,605.395 766.674,604.432C767.764,603.729 769.074,603.347 770.621,603.347C773.705,603.347 776.198,604.2 778.133,605.802C780.256,607.56 781.282,609.716 781.282,612.237L781.282,712.102L781.282,714.168C781.902,714.096 782.515,714.037 783.121,713.993C784.466,713.896 785.726,713.798 786.9,713.7C786.93,713.697 786.96,713.696 786.99,713.694C788.854,713.617 790.239,714.118 791.21,714.972C792.195,715.839 792.826,716.97 793.062,718.387C793.254,719.538 793.205,720.785 792.885,722.127C792.588,723.375 792.112,724.55 791.458,725.65C790.787,726.778 789.976,727.736 789.031,728.529C787.841,729.527 786.543,729.997 785.161,729.997C784.067,729.997 783.032,730.021 782.056,730.068C781.706,730.085 781.358,730.105 781.011,730.129C780.738,733.952 780.29,737.766 779.667,741.571C778.919,746.133 777.69,750.255 775.989,753.94C774.214,757.786 771.811,760.899 768.799,763.293C765.691,765.763 761.684,767.049 756.744,767.049C753.815,767.049 751.177,766.526 748.828,765.503C746.451,764.468 744.425,763.038 742.747,761.22C741.079,759.413 739.796,757.289 738.906,754.842C738.036,752.45 737.594,749.841 737.594,747.014C737.594,742.789 738.479,739.055 740.212,735.805C741.908,732.625 744.133,729.814 746.89,727.376C749.599,724.979 752.698,722.958 756.189,721.317C759.093,719.951 762.072,718.78 765.126,717.804L765.126,704.004C764.754,704.509 764.379,705.007 763.999,705.498C762.136,707.904 760.181,709.998 758.137,711.783C756.028,713.625 753.85,715.062 751.607,716.103C749.243,717.201 746.821,717.744 744.344,717.744C743.026,717.744 741.631,717.486 740.163,716.947C738.673,716.4 737.3,715.512 736.054,714.266C734.858,713.07 733.848,711.492 733.061,709.509C732.311,707.621 731.911,705.265 731.911,702.433L731.911,619.91C729.649,620.399 727.481,621.15 725.406,622.162C722.641,623.511 720.236,625.355 718.191,627.692C716.121,630.057 714.492,632.928 713.287,636.294C712.059,639.723 711.458,643.687 711.458,648.182C711.458,651.028 711.75,653.588 712.347,655.86C712.939,658.117 713.639,660.034 714.459,661.607C715.233,663.09 715.994,664.249 716.767,665.066C717.01,665.323 717.325,665.587 717.51,665.737C717.52,665.733 717.529,665.729 717.539,665.724C718.255,665.366 718.975,665.199 719.692,665.199C720.668,665.199 721.43,665.553 722.016,666.163C722.584,666.755 723.046,667.737 723.046,669.218C723.046,671.125 722.617,672.958 721.753,674.716C720.896,676.46 719.808,677.871 718.507,678.964C717.124,680.127 715.611,680.855 713.976,681.169C712.101,681.53 710.368,681.149 708.781,680.008C707.319,679.026 705.751,677.547 704.101,675.546C702.502,673.605 701.028,671.261 699.69,668.507C698.375,665.799 697.288,662.743 696.437,659.338C695.584,655.929 695.154,652.211 695.154,648.182C695.154,642.632 695.831,637.662 697.167,633.268C698.515,628.835 700.323,624.962 702.579,621.644C704.851,618.3 707.505,615.454 710.536,613.103C713.535,610.776 716.691,608.889 720.002,607.441C723.304,605.996 726.658,604.952 730.064,604.307C733.452,603.665 736.687,603.347 739.768,603.347C740.853,603.347 741.904,603.565 742.92,604.006C743.931,604.444 744.805,605.052 745.546,605.826C746.257,606.569 746.843,607.454 747.295,608.487C747.759,609.548 747.994,610.675 747.994,611.868L747.994,701.083ZM779.109,612.237C779.109,610.367 778.321,608.78 776.747,607.476C775.172,606.172 773.13,605.52 770.621,605.52C769.538,605.52 768.615,605.766 767.853,606.258C767.09,606.751 766.709,607.366 766.709,608.104C766.709,608.645 766.807,609.235 767.004,609.875C767.201,610.515 767.299,611.548 767.299,612.975L767.299,670.399C767.299,672.564 766.906,674.877 766.118,677.337C765.331,679.798 764.322,682.258 763.092,684.718C761.862,687.179 760.484,689.553 758.959,691.841C757.433,694.129 755.92,696.147 754.419,697.893C752.919,699.64 751.528,701.043 750.249,702.101C748.97,703.158 747.961,703.687 747.223,703.687C746.928,703.687 746.62,703.577 746.3,703.355C745.98,703.134 745.821,702.531 745.821,701.547L745.821,611.868C745.821,610.982 745.648,610.146 745.304,609.358C744.959,608.571 744.517,607.895 743.975,607.329C743.434,606.763 742.794,606.32 742.056,606C741.318,605.68 740.555,605.52 739.768,605.52C736.816,605.52 733.716,605.828 730.468,606.443C727.22,607.058 724.022,608.054 720.873,609.432C717.724,610.81 714.722,612.606 711.868,614.82C709.014,617.035 706.517,619.716 704.376,622.866C702.236,626.015 700.526,629.693 699.247,633.9C697.967,638.107 697.327,642.868 697.327,648.182C697.327,652.021 697.733,655.563 698.545,658.811C699.357,662.059 700.391,664.974 701.645,667.558C702.9,670.141 704.278,672.343 705.779,674.163C707.279,675.984 708.694,677.337 710.023,678.223C711.105,679.01 712.286,679.281 713.566,679.035C714.845,678.789 716.026,678.211 717.108,677.3C718.191,676.39 719.089,675.209 719.803,673.758C720.516,672.306 720.873,670.793 720.873,669.218C720.873,667.988 720.479,667.373 719.692,667.373C719.298,667.373 718.905,667.471 718.511,667.668C718.117,667.865 717.699,667.963 717.256,667.963C716.764,667.963 716.075,667.496 715.189,666.561C714.304,665.626 713.418,664.31 712.532,662.612C711.647,660.915 710.884,658.848 710.244,656.412C709.604,653.977 709.285,651.233 709.285,648.182C709.285,643.409 709.937,639.202 711.241,635.561C712.545,631.92 714.316,628.82 716.555,626.261C718.794,623.702 721.426,621.685 724.453,620.209C727.479,618.732 730.69,617.773 734.085,617.33L734.085,702.433C734.085,704.942 734.417,707.033 735.081,708.706C735.745,710.38 736.582,711.72 737.591,712.729C738.599,713.738 739.707,714.464 740.912,714.907C742.118,715.349 743.262,715.571 744.344,715.571C746.509,715.571 748.625,715.091 750.692,714.132C752.759,713.172 754.764,711.843 756.707,710.146C758.651,708.448 760.509,706.455 762.28,704.167C764.052,701.879 765.725,699.431 767.299,696.823L767.299,719.409C763.806,720.442 760.41,721.734 757.113,723.284C753.817,724.834 750.889,726.741 748.33,729.004C745.771,731.268 743.705,733.876 742.13,736.828C740.555,739.78 739.768,743.176 739.768,747.014C739.768,749.573 740.162,751.934 740.949,754.1C741.736,756.265 742.868,758.147 744.344,759.746C745.821,761.345 747.604,762.6 749.696,763.51C751.787,764.421 754.136,764.876 756.744,764.876C761.124,764.876 764.691,763.781 767.447,761.591C770.202,759.402 772.392,756.548 774.016,753.029C775.64,749.511 776.808,745.574 777.522,741.22C778.235,736.865 778.715,732.498 778.961,728.118C779.945,728.02 780.942,727.946 781.95,727.897C782.959,727.848 784.029,727.823 785.161,727.823C786.047,727.823 786.871,727.503 787.634,726.864C788.396,726.224 789.048,725.449 789.59,724.539C790.131,723.628 790.525,722.657 790.771,721.623C791.017,720.59 791.066,719.63 790.918,718.745C790.771,717.859 790.389,717.145 789.774,716.604C789.159,716.063 788.261,715.817 787.08,715.866C785.899,715.964 784.632,716.063 783.279,716.161C781.926,716.26 780.536,716.432 779.109,716.678L779.109,612.237ZM757.04,753.214C755.514,753.214 754.223,752.709 753.165,751.701C752.107,750.692 751.578,749.031 751.578,746.719C751.578,742.93 752.894,739.67 755.527,736.939C758.159,734.208 761.985,732.08 767.004,730.554C766.807,733.556 766.5,736.422 766.081,739.153C765.663,741.884 765.06,744.295 764.273,746.386C763.486,748.478 762.502,750.138 761.321,751.369C760.14,752.599 758.713,753.214 757.04,753.214ZM757.04,751.04C758.101,751.04 759.003,750.644 759.753,749.863C760.755,748.819 761.57,747.396 762.239,745.621C762.978,743.656 763.54,741.39 763.933,738.824C764.186,737.169 764.398,735.463 764.568,733.707C761.436,734.964 758.937,736.532 757.091,738.447C754.865,740.757 753.751,743.514 753.751,746.719C753.751,748.28 753.951,749.447 754.665,750.128C755.312,750.745 756.107,751.04 757.04,751.04Z"/>
                    </g>
                    <g transform="matrix(3.969238,0,0,3.969238,-1467.627037,-1719.714456)">
                        <path d="M809.961,700.292C812.028,700.292 813.775,700.993 815.202,702.396C816.629,703.798 817.342,705.533 817.342,707.599C817.342,708.534 817.145,709.432 816.752,710.293C816.358,711.155 815.829,711.905 815.165,712.545C814.501,713.184 813.726,713.701 812.84,714.095C811.954,714.488 810.995,714.685 809.961,714.685C808.977,714.685 808.054,714.488 807.193,714.095C806.332,713.701 805.57,713.184 804.905,712.545C804.241,711.905 803.712,711.155 803.318,710.293C802.925,709.432 802.728,708.534 802.728,707.599C802.728,706.566 802.925,705.606 803.318,704.721C803.712,703.835 804.241,703.06 804.905,702.396C805.57,701.731 806.332,701.215 807.193,700.846C808.054,700.477 808.977,700.292 809.961,700.292Z" style="fill:rgb(255,213,0);fill-rule:nonzero;"/>
                        <path d="M809.961,698.119C812.63,698.119 814.882,699.034 816.725,700.845C818.579,702.667 819.516,704.915 819.516,707.599C819.516,708.848 819.254,710.047 818.729,711.197C818.219,712.312 817.533,713.282 816.673,714.11C815.829,714.922 814.847,715.581 813.723,716.081C812.565,716.595 811.312,716.859 809.961,716.859C808.656,716.859 807.432,716.594 806.29,716.071C805.201,715.574 804.237,714.919 803.398,714.11C802.538,713.282 801.851,712.312 801.341,711.197C800.816,710.047 800.554,708.848 800.554,707.599C800.554,706.249 800.818,704.996 801.332,703.838C801.837,702.703 802.517,701.71 803.368,700.859C804.23,699.997 805.22,699.327 806.337,698.848C807.465,698.365 808.672,698.119 809.961,698.119ZM809.961,700.292C808.977,700.292 808.054,700.477 807.193,700.846C806.332,701.215 805.57,701.731 804.905,702.396C804.241,703.06 803.712,703.835 803.318,704.721C802.925,705.606 802.728,706.566 802.728,707.599C802.728,708.534 802.925,709.432 803.318,710.293C803.712,711.155 804.241,711.905 804.905,712.545C805.57,713.184 806.332,713.701 807.193,714.095C808.054,714.488 808.977,714.685 809.961,714.685C810.995,714.685 811.954,714.488 812.84,714.095C813.726,713.701 814.501,713.184 815.165,712.545C815.829,711.905 816.358,711.155 816.752,710.293C817.145,709.432 817.342,708.534 817.342,707.599C817.342,705.533 816.629,703.798 815.202,702.396C813.775,700.993 812.028,700.292 809.961,700.292Z"/>
                    </g>
                </g>
                <g>
                    <g transform="matrix(3.969238,0,0,3.969238,-1304.773033,-1719.714456)">
                        <path d="M632.67,617.33C629.275,617.773 626.064,618.732 623.038,620.209C620.012,621.685 617.379,623.702 615.14,626.261C612.901,628.82 611.13,631.92 609.826,635.561C608.522,639.202 607.87,643.409 607.87,648.182C607.87,651.233 608.19,653.977 608.829,656.412C609.469,658.848 610.232,660.915 611.118,662.612C612.003,664.31 612.889,665.626 613.775,666.561C614.66,667.496 615.349,667.963 615.841,667.963C616.235,667.963 616.518,667.791 616.69,667.447C616.862,667.102 617.145,666.93 617.539,666.93C617.933,666.93 618.203,667.176 618.351,667.668C618.499,668.16 618.572,668.677 618.572,669.218C618.572,670.498 618.363,671.74 617.945,672.946C617.527,674.151 616.973,675.209 616.284,676.119C615.595,677.03 614.808,677.768 613.922,678.334C613.037,678.9 612.126,679.183 611.191,679.183C610.158,679.183 609.297,678.863 608.608,678.223C607.673,677.633 606.48,676.562 605.028,675.012C603.577,673.462 602.174,671.445 600.821,668.96C599.468,666.475 598.312,663.498 597.352,660.029C596.393,656.56 595.913,652.611 595.913,648.182C595.913,642.868 596.552,638.107 597.832,633.9C599.111,629.693 600.821,626.015 602.962,622.866C605.102,619.716 607.599,617.035 610.453,614.82C613.307,612.606 616.309,610.81 619.458,609.432C622.607,608.054 625.806,607.058 629.053,606.443C632.301,605.828 635.401,605.52 638.353,605.52C639.141,605.52 639.903,605.68 640.642,606C641.38,606.32 642.019,606.763 642.561,607.329C643.102,607.895 643.545,608.571 643.889,609.358C644.234,610.146 644.406,610.982 644.406,611.868L644.406,716.678C645.833,716.432 647.223,716.26 648.576,716.161C649.929,716.063 651.221,715.964 652.451,715.866C654.223,715.768 655.367,716.321 655.883,717.527C656.4,718.732 656.474,720.098 656.105,721.623C655.736,723.149 655.034,724.551 654.001,725.83C652.968,727.11 651.787,727.774 650.458,727.823C649.326,727.823 648.256,727.848 647.248,727.897C646.239,727.946 645.242,728.02 644.258,728.118C644.012,732.498 643.545,736.865 642.856,741.22C642.167,745.574 641.011,749.511 639.387,753.029C637.763,756.548 635.561,759.402 632.781,761.591C630.001,763.781 626.421,764.876 622.041,764.876C619.483,764.876 617.158,764.421 615.066,763.51C612.975,762.6 611.191,761.345 609.715,759.746C608.239,758.147 607.107,756.265 606.32,754.1C605.533,751.934 605.139,749.573 605.139,747.014C605.139,743.176 605.914,739.78 607.464,736.828C609.014,733.876 611.081,731.268 613.664,729.004C616.247,726.741 619.187,724.834 622.484,723.284C625.781,721.734 629.176,720.442 632.67,719.409L632.67,617.33ZM622.337,753.214C624.01,753.214 625.437,752.599 626.618,751.369C627.799,750.138 628.783,748.478 629.57,746.386C630.357,744.295 630.96,741.884 631.378,739.153C631.797,736.422 632.104,733.556 632.301,730.554C627.282,732.08 623.468,734.208 620.86,736.939C618.253,739.67 616.949,742.93 616.949,746.719C616.949,749.031 617.465,750.692 618.499,751.701C619.532,752.709 620.811,753.214 622.337,753.214Z" style="fill:white;fill-rule:nonzero;"/>
                        <path d="M615.641,665.347C616.148,664.955 616.78,664.756 617.539,664.756C618.862,664.756 619.937,665.389 620.433,667.044C620.64,667.734 620.746,668.459 620.746,669.218C620.746,670.742 620.497,672.222 619.999,673.658C619.501,675.092 618.837,676.348 618.018,677.431C617.166,678.557 616.188,679.466 615.093,680.165C613.829,680.973 612.525,681.356 611.191,681.356C609.639,681.356 608.342,680.873 607.284,679.955C606.266,679.28 604.977,678.137 603.442,676.498C601.882,674.832 600.366,672.67 598.912,669.999C597.489,667.386 596.266,664.257 595.257,660.608C594.251,656.969 593.739,652.828 593.739,648.182C593.739,642.632 594.416,637.662 595.752,633.268C597.1,628.835 598.908,624.962 601.164,621.644C603.437,618.3 606.09,615.454 609.121,613.103C612.121,610.776 615.277,608.889 618.587,607.441C621.889,605.996 625.243,604.952 628.649,604.307C632.038,603.665 635.273,603.347 638.353,603.347C639.438,603.347 640.489,603.565 641.506,604.006C642.516,604.444 643.39,605.052 644.131,605.826C644.842,606.569 645.428,607.454 645.881,608.487C646.345,609.548 646.579,610.675 646.579,611.868L646.579,712.102L646.579,714.168C647.2,714.096 647.812,714.037 648.418,713.993C649.766,713.895 651.053,713.797 652.278,713.699C652.295,713.698 652.313,713.697 652.331,713.696C655.256,713.533 657.028,714.679 657.881,716.671C658.571,718.279 658.71,720.099 658.217,722.134C657.774,723.969 656.935,725.658 655.692,727.196C654.201,729.042 652.455,729.924 650.539,729.995C650.512,729.996 650.485,729.997 650.458,729.997C649.364,729.997 648.329,730.021 647.353,730.068C647.004,730.085 646.655,730.105 646.309,730.128C646.039,733.948 645.604,737.758 645.003,741.559C644.28,746.125 643.063,750.251 641.36,753.94C639.584,757.789 637.167,760.904 634.126,763.299C630.993,765.766 626.976,767.049 622.041,767.049C619.164,767.049 616.551,766.527 614.199,765.503C611.821,764.468 609.796,763.038 608.118,761.22C606.45,759.413 605.167,757.289 604.277,754.842C603.407,752.45 602.965,749.841 602.965,747.014C602.965,742.793 603.835,739.064 605.539,735.818C607.213,732.63 609.442,729.813 612.232,727.369C614.964,724.975 618.072,722.956 621.559,721.317C624.464,719.951 627.443,718.78 630.496,717.804L630.496,619.91C628.235,620.399 626.066,621.15 623.991,622.162C621.226,623.511 618.822,625.355 616.776,627.692C614.707,630.057 613.078,632.928 611.872,636.294C610.644,639.723 610.044,643.687 610.044,648.182C610.044,651.028 610.335,653.588 610.932,655.86C611.525,658.117 612.224,660.034 613.045,661.607C613.819,663.09 614.579,664.249 615.353,665.066C615.442,665.161 615.542,665.257 615.641,665.347ZM632.67,617.33L632.67,719.409C629.176,720.442 625.781,721.734 622.484,723.284C619.187,724.834 616.247,726.741 613.664,729.004C611.081,731.268 609.014,733.876 607.464,736.828C605.914,739.78 605.139,743.176 605.139,747.014C605.139,749.573 605.533,751.934 606.32,754.1C607.107,756.265 608.239,758.147 609.715,759.746C611.191,761.345 612.975,762.6 615.066,763.51C617.158,764.421 619.483,764.876 622.041,764.876C626.421,764.876 630.001,763.781 632.781,761.591C635.561,759.402 637.763,756.548 639.387,753.029C641.011,749.511 642.167,745.574 642.856,741.22C643.545,736.865 644.012,732.498 644.258,728.118C645.242,728.02 646.239,727.946 647.248,727.897C648.256,727.848 649.326,727.823 650.458,727.823C651.787,727.774 652.968,727.11 654.001,725.83C655.034,724.551 655.736,723.149 656.105,721.623C656.474,720.098 656.4,718.732 655.883,717.527C655.367,716.321 654.223,715.768 652.451,715.866C651.221,715.964 649.929,716.063 648.576,716.161C647.223,716.26 645.833,716.432 644.406,716.678L644.406,611.868C644.406,610.982 644.234,610.146 643.889,609.358C643.545,608.571 643.102,607.895 642.561,607.329C642.019,606.763 641.38,606.32 640.642,606C639.903,605.68 639.141,605.52 638.353,605.52C635.401,605.52 632.301,605.828 629.053,606.443C625.806,607.058 622.607,608.054 619.458,609.432C616.309,610.81 613.307,612.606 610.453,614.82C607.599,617.035 605.102,619.716 602.962,622.866C600.821,626.015 599.111,629.693 597.832,633.9C596.552,638.107 595.913,642.868 595.913,648.182C595.913,652.611 596.393,656.56 597.352,660.029C598.312,663.498 599.468,666.475 600.821,668.96C602.174,671.445 603.577,673.462 605.028,675.012C606.48,676.562 607.673,677.633 608.608,678.223C609.297,678.863 610.158,679.183 611.191,679.183C612.126,679.183 613.037,678.9 613.922,678.334C614.808,677.768 615.595,677.03 616.284,676.119C616.973,675.209 617.527,674.151 617.945,672.946C618.363,671.74 618.572,670.498 618.572,669.218C618.572,668.677 618.499,668.16 618.351,667.668C618.203,667.176 617.933,666.93 617.539,666.93C617.145,666.93 616.862,667.102 616.69,667.447C616.518,667.791 616.235,667.963 615.841,667.963C615.349,667.963 614.66,667.496 613.775,666.561C612.889,665.626 612.003,664.31 611.118,662.612C610.232,660.915 609.469,658.848 608.829,656.412C608.19,653.977 607.87,651.233 607.87,648.182C607.87,643.409 608.522,639.202 609.826,635.561C611.13,631.92 612.901,628.82 615.14,626.261C617.379,623.702 620.012,621.685 623.038,620.209C626.064,618.732 629.275,617.773 632.67,617.33ZM622.337,753.214C620.811,753.214 619.532,752.709 618.499,751.701C617.465,750.692 616.949,749.031 616.949,746.719C616.949,742.93 618.253,739.67 620.86,736.939C623.468,734.208 627.282,732.08 632.301,730.554C632.104,733.556 631.797,736.422 631.378,739.153C630.96,741.884 630.357,744.295 629.57,746.386C628.783,748.478 627.799,750.138 626.618,751.369C625.437,752.599 624.01,753.214 622.337,753.214ZM622.337,751.04C623.398,751.04 624.3,750.644 625.05,749.863C626.052,748.819 626.867,747.396 627.536,745.621C628.275,743.656 628.837,741.39 629.23,738.824C629.483,737.169 629.695,735.464 629.865,733.707C626.743,734.963 624.258,736.528 622.432,738.44C620.225,740.752 619.122,743.511 619.122,746.719C619.122,748.288 619.316,749.461 620.017,750.145C620.64,750.753 621.417,751.04 622.337,751.04Z"/>
                    </g>
                    <g transform="matrix(3.969238,0,0,3.969238,-1380.175865,-1719.714456)">
                        <path d="M675.258,700.292C677.325,700.292 679.072,700.993 680.499,702.396C681.926,703.798 682.639,705.533 682.639,707.599C682.639,708.534 682.442,709.432 682.049,710.293C681.655,711.155 681.126,711.905 680.462,712.545C679.798,713.184 679.023,713.701 678.137,714.095C677.251,714.488 676.292,714.685 675.258,714.685C674.274,714.685 673.352,714.488 672.49,714.095C671.629,713.701 670.867,713.184 670.202,712.545C669.538,711.905 669.009,711.155 668.615,710.293C668.222,709.432 668.025,708.534 668.025,707.599C668.025,706.566 668.222,705.606 668.615,704.721C669.009,703.835 669.538,703.06 670.202,702.396C670.867,701.731 671.629,701.215 672.49,700.846C673.352,700.477 674.274,700.292 675.258,700.292Z" style="fill:white;fill-rule:nonzero;"/>
                        <path d="M675.258,698.119C677.927,698.119 680.179,699.034 682.022,700.845C683.876,702.667 684.813,704.915 684.813,707.599C684.813,708.848 684.551,710.047 684.026,711.197C683.516,712.312 682.83,713.282 681.97,714.11C681.126,714.922 680.144,715.581 679.02,716.081C677.862,716.595 676.609,716.859 675.258,716.859C673.953,716.859 672.729,716.594 671.587,716.071C670.498,715.574 669.535,714.919 668.695,714.11C667.835,713.282 667.148,712.312 666.639,711.197C666.113,710.047 665.851,708.848 665.851,707.599C665.851,706.249 666.115,704.996 666.629,703.838C667.134,702.703 667.814,701.71 668.665,700.859C669.527,699.997 670.517,699.327 671.634,698.848C672.762,698.365 673.969,698.119 675.258,698.119ZM675.258,700.292C674.274,700.292 673.352,700.477 672.49,700.846C671.629,701.215 670.867,701.731 670.202,702.396C669.538,703.06 669.009,703.835 668.615,704.721C668.222,705.606 668.025,706.566 668.025,707.599C668.025,708.534 668.222,709.432 668.615,710.293C669.009,711.155 669.538,711.905 670.202,712.545C670.867,713.184 671.629,713.701 672.49,714.095C673.352,714.488 674.274,714.685 675.258,714.685C676.292,714.685 677.251,714.488 678.137,714.095C679.023,713.701 679.798,713.184 680.462,712.545C681.126,711.905 681.655,711.155 682.049,710.293C682.442,709.432 682.639,708.534 682.639,707.599C682.639,705.533 681.926,703.798 680.499,702.396C679.072,700.993 677.325,700.292 675.258,700.292Z"/>
                    </g>
                </g>
            </g>
        </g>
    </g>
</svg>
